<svg xmlns="http://www.w3.org/2000/svg" xmlns:xlink="http://www.w3.org/1999/xlink" viewBox="0 0 480 402">
  <defs>
    <linearGradient id="linear-gradient" x1="480" x2="358" y1="237.5" y2="237.5" gradientUnits="userSpaceOnUse">
      <stop offset="0" stop-color="#33199c"/>
      <stop offset="1" stop-color="#4696ec"/>
    </linearGradient>
    <linearGradient id="linear-gradient-2" x1="419" x2="358" y1="290.8" y2="290.8" gradientUnits="userSpaceOnUse">
      <stop offset="0" stop-color="#33199c"/>
      <stop offset=".2" stop-color="#331c9e"/>
      <stop offset=".4" stop-color="#3528a7"/>
      <stop offset=".7" stop-color="#373bb6"/>
      <stop offset=".9" stop-color="#3b56cb"/>
      <stop offset="1" stop-color="#3e6adb"/>
    </linearGradient>
    <linearGradient id="linear-gradient-3" x1="419" x2="480" y1="290.8" y2="290.8" gradientUnits="userSpaceOnUse">
      <stop offset="0" stop-color="#3949bb"/>
      <stop offset=".4" stop-color="#394cbe"/>
      <stop offset=".7" stop-color="#3b58c9"/>
      <stop offset="1" stop-color="#3e6adb"/>
    </linearGradient>
    <linearGradient xlink:href="#linear-gradient" id="linear-gradient-4" x1="204" x2="82" y1="135.5" y2="135.5"/>
    <linearGradient xlink:href="#linear-gradient-2" id="linear-gradient-5" x1="143" x2="82" y1="188.8" y2="188.8"/>
    <linearGradient xlink:href="#linear-gradient-3" id="linear-gradient-6" x1="143" x2="204" y1="188.8" y2="188.8"/>
    <linearGradient id="linear-gradient-7" x1="393.7" x2="148.6" y1="159.8" y2="159.8" gradientUnits="userSpaceOnUse">
      <stop offset="0" stop-color="#4696ec"/>
      <stop offset="1" stop-color="#c7dff9"/>
    </linearGradient>
    <linearGradient id="linear-gradient-8" x1="396.4" x2="396.4" y1="142.3" y2="316.3" gradientUnits="userSpaceOnUse">
      <stop offset="0" stop-color="#4696ec"/>
      <stop offset="1" stop-color="#fff"/>
    </linearGradient>
    <linearGradient id="linear-gradient-9" x1="399.5" x2="149.1" y1="72.8" y2="72.8" gradientUnits="userSpaceOnUse">
      <stop offset="0" stop-color="#33199c"/>
      <stop offset=".6" stop-color="#4696ec"/>
      <stop offset="1" stop-color="#f8f7f7"/>
    </linearGradient>
    <linearGradient xlink:href="#linear-gradient-7" id="linear-gradient-10" x1="393.2" x2="0" y1="281.3" y2="281.3"/>
    <linearGradient id="linear-gradient-11" x1="244.8" x2="0" y1="327.5" y2="327.5" gradientUnits="userSpaceOnUse">
      <stop offset="0" stop-color="#33199c"/>
      <stop offset=".3" stop-color="#4696ec"/>
      <stop offset=".9" stop-color="#ecf4fd"/>
    </linearGradient>
    <linearGradient id="linear-gradient-12" x1="244.8" x2="393.3" y1="355.8" y2="355.8" gradientUnits="userSpaceOnUse">
      <stop offset="0" stop-color="#4696ec"/>
      <stop offset=".9" stop-color="#ecf4fd"/>
    </linearGradient>
    <linearGradient id="linear-gradient-13" x1="-3153" x2="-2818.3" y1="281.3" y2="281.3" gradientTransform="matrix(-1 0 0 1 -2789 0)" gradientUnits="userSpaceOnUse">
      <stop offset="0" stop-color="#33199c"/>
      <stop offset="1" stop-color="#4696ec"/>
    </linearGradient>
    <linearGradient id="linear-gradient-14" x1="144.7" x2="447.6" y1="107" y2="229.4" gradientUnits="userSpaceOnUse">
      <stop offset="0" stop-color="#fff" stop-opacity=".3"/>
      <stop offset="1" stop-color="#fff" stop-opacity="0"/>
    </linearGradient>
    <style>
      .cls-1,.cls-2,.cls-3,.cls-4{stroke:#fff;stroke-miterlimit:10}.cls-1,.cls-3,.cls-4{fill:none}.cls-1,.cls-5{opacity:.5}.cls-6{fill:url(#linear-gradient-7)}.cls-7{fill:url(#linear-gradient-9)}.cls-8{fill:url(#linear-gradient-6)}.cls-9{fill:url(#linear-gradient-8)}.cls-10{fill:url(#linear-gradient-3)}.cls-11{fill:url(#linear-gradient-2)}.cls-12{fill:url(#linear-gradient-4)}.cls-13{fill:url(#linear-gradient-5)}.cls-14{fill:#33199c}.cls-15{fill:#3eedce}.cls-16{fill:#3e6adb}.cls-17{fill:#61aec8}.cls-18{fill:#3a9aba}.cls-19{fill:#3949bb}.cls-20{fill:#4696ec}.cls-21{fill:#4d5bc2}.cls-22{fill:url(#linear-gradient)}.cls-2{fill:url(#linear-gradient-14)}.cls-3{stroke-dasharray:0 0 6.085 6.085}.cls-23{fill:url(#linear-gradient-10)}.cls-24{fill:url(#linear-gradient-13)}.cls-25{fill:url(#linear-gradient-11)}.cls-26{fill:url(#linear-gradient-12)}.cls-27{isolation:isolate}
    </style>
  </defs>
  <g id="bg-cubes">
    <path fill="url(#linear-gradient)" d="M480 237.5 419 273l-61-35.5 61-35.5 61 35.5z"/>
    <path fill="url(#linear-gradient-2)" d="m419 344-61-35.5v-71l61 35.5v71z"/>
    <path fill="url(#linear-gradient-3)" d="m419 344 61-35.5v-71L419 273v71z"/>
    <path fill="url(#linear-gradient-4)" d="M204 135.5 143 171l-61-35.5 61-35.5 61 35.5z"/>
    <path fill="url(#linear-gradient-5)" d="m143 242-61-35.5v-71l61 35.5v71z"/>
    <path fill="url(#linear-gradient-6)" d="m143 242 61-35.5v-71L143 171v71z"/>
  </g>
  <g id="laptop">
    <path fill="url(#linear-gradient-7)" d="m149.1 3.4-.5 170.6 244.6 142.3.5-170.6L149.1 3.4z"/>
    <path fill="url(#linear-gradient-8)" d="m393.2 316.3 5.8-3.4.5-170.6-5.8 3.4-.5 170.6z"/>
    <path fill="url(#linear-gradient-9)" d="m393.7 145.7 5.8-3.4L154.9 0l-5.8 3.4 244.6 142.3z"/>
    <path fill="url(#linear-gradient-10)" d="m0 253 244.8 142.3 148.4-85.8-244.7-142.2L0 253z"/>
    <path fill="url(#linear-gradient-11)" d="M0 253v6.7L244.8 402v-6.7L0 253z"/>
    <path fill="url(#linear-gradient-12)" d="M244.8 395.3v6.7l148.5-85.7-.1-6.8-148.4 85.8z"/>
    <path fill="url(#linear-gradient-13)" d="m29.3 257.2 208.3 121.1 126.4-73-208.4-121.1-126.3 73z" style="isolation:isolate"/>
    <path fill="url(#linear-gradient-14)" stroke="#fff" stroke-miterlimit="10" d="m160 28.6-.4 130.8L380.5 287l.4-130.9L160 28.6z" style="isolation:isolate"/>
    <g fill="none" stroke="#fff" stroke-miterlimit="10">
      <path d="m266 333.3 13.9-8.1 17.1 9.9-14 8-17-9.8z"/>
      <path d="m246.1 321.8 13.9-8 17.1 9.8-13.9 8.1-17.1-9.9z"/>
      <path d="m226.3 310.4 13.8-8.1 17.2 9.9-14 8-17-9.8z"/>
      <path d="m146.8 264.5 13.8-8.1 76.8 44.3-14 8-76.6-44.2z"/>
      <path d="m126.9 253 13.9-8.1 17.1 9.9-13.9 8-17.1-9.8z"/>
      <path d="m107 241.5 13.9-8 17.1 9.8-13.9 8.1-17.1-9.9z"/>
      <path d="M87.2 230.1 101 222l17.2 9.9-14 8-17-9.8z"/>
    </g>
    <g fill="none" stroke="#fff" stroke-miterlimit="10">
      <path d="m317.4 303.5 13.8-8 17.1 9.8-13.9 8-17-9.8z"/>
      <path d="m297.6 292.1 13.8-8.1 17.1 9.9-13.9 8-17-9.8z"/>
      <path d="m277.8 280.6 13.8-8 17.1 9.8-13.9 8-17-9.8z"/>
      <path d="m257.9 269.2 13.9-8.1 17.1 9.9-13.9 8-17.1-9.8z"/>
      <path d="m238.1 257.7 13.9-8 17.1 9.8-14 8-17-9.8z"/>
      <path d="m218.3 246.3 13.8-8.1 17.1 9.9-13.9 8-17-9.8z"/>
      <path d="m198.5 234.8 13.8-8 17.1 9.9-13.9 7.9-17-9.8z"/>
      <path d="m178.7 223.4 13.8-8 17.1 9.8-13.9 8-17-9.8z"/>
      <path d="m158.8 211.9 13.9-8 17.1 9.9-14 8-17-9.9z"/>
      <path d="m139 200.5 13.8-8 17.1 9.8-13.9 8-17-9.8z"/>
    </g>
    <g fill="none" stroke="#fff" stroke-miterlimit="10">
      <path d="m300.6 313.5 13.8-8 17.1 9.8-13.9 8-17-9.8z"/>
      <path d="m280.7 302.1 13.9-8 17.1 9.8-13.9 8-17.1-9.8z"/>
      <path d="m260.9 290.6 13.9-8 17.1 9.9-14 8-17-9.9z"/>
      <path d="m241.1 279.2 13.8-8L272 281l-13.9 8-17-9.8z"/>
      <path d="m221.3 267.8 13.8-8.1 17.1 9.9-13.9 8-17-9.8z"/>
      <path d="m201.5 256.3 13.8-8 17.1 9.8-13.9 8-17-9.8z"/>
      <path d="m181.6 244.9 13.9-8.1 17.1 9.9-14 8-17-9.8z"/>
      <path d="m161.8 233.4 13.8-8 17.1 9.8-13.9 8-17-9.8z"/>
      <path d="m142 222 13.8-8.1 17.1 9.9-13.9 8-17-9.8z"/>
      <path d="m122.2 210.5 13.8-8 17.1 9.9-13.9 7.9-17-9.8z"/>
    </g>
    <g fill="none" stroke="#fff" stroke-miterlimit="10">
      <path d="m283.1 323.2 13.9-8.1 17.1 9.9-14 8-17-9.8z"/>
      <path d="m263.3 311.7 13.8-8 17.1 9.9-13.9 7.9-17-9.8z"/>
      <path d="m243.5 300.3 13.8-8 17.1 9.8-13.9 8-17-9.8z"/>
      <path d="m223.7 288.8 13.8-8 17.1 9.9-13.9 8-17-9.9z"/>
      <path d="m203.8 277.4 13.9-8 17.1 9.8-13.9 8-17.1-9.8z"/>
      <path d="m184 266 13.9-8.1 17.1 9.9-14 8-17-9.8z"/>
      <path d="m164.2 254.5 13.8-8 17.1 9.8-13.9 8-17-9.8z"/>
      <path d="m144.4 243.1 13.8-8.1 17.1 9.9-13.9 8-17-9.8z"/>
      <path d="m124.6 231.6 13.8-8 17.1 9.8-13.9 8-17-9.8z"/>
      <path d="m104.7 220.2 13.9-8.1 17.1 9.9-14 8-17-9.8z"/>
    </g>
    <path fill="none" stroke="#fff" stroke-miterlimit="10" d="m101.2 289.8 37.7-22a2 2 0 0 1 2 0l73.5 42.6a2 2 0 0 1 0 3.4l-38 21.8a2 2 0 0 1-2 0l-73.2-42.4a2 2 0 0 1 0-3.4Z"/>
  </g>
  <g id="screen">
    <g fill="none" stroke="#fff" stroke-miterlimit="10" opacity=".5">
      <path d="m172.8 121.9 2.6 1.5"/>
      <path stroke-dasharray="0 0 6.1 6.1" d="m180.7 126.4 187.1 108.1"/>
      <path d="m370.4 236 2.6 1.5"/>
    </g>
    <g fill="none" stroke="#fff" stroke-miterlimit="10" opacity=".5">
      <path d="m172.8 144.3 2.6 1.5"/>
      <path stroke-dasharray="0 0 6.1 6.1" d="m180.7 148.8 187.1 108.1"/>
      <path d="m370.4 258.4 2.6 1.5"/>
    </g>
    <g fill="none" stroke="#fff" stroke-miterlimit="10" opacity=".5">
      <path d="m172.8 99.5 2.6 1.5"/>
      <path stroke-dasharray="0 0 6.1 6.1" d="m180.7 104 187.1 108.1"/>
      <path d="m370.4 213.6 2.6 1.5"/>
    </g>
    <g fill="none" stroke="#fff" stroke-miterlimit="10" opacity=".5">
      <path d="m172.8 77.1 2.6 1.5"/>
      <path stroke-dasharray="0 0 6.1 6.1" d="m180.7 81.6 187.1 108.1"/>
      <path d="m370.4 191.2 2.6 1.5"/>
    </g>
    <g fill="none" stroke="#fff" stroke-miterlimit="10" opacity=".5">
      <path d="m172.8 54.7 2.6 1.5"/>
      <path stroke-dasharray="0 0 6.1 6.1" d="m180.7 59.2 187.1 108.1"/>
      <path d="m370.4 168.8 2.6 1.5"/>
    </g>
    <path fill="none" stroke="#fff" stroke-miterlimit="10" d="m361.7 244-46.9-91.9-50.6 37.8-53.4-89.3-50.9 31.2" opacity=".5"/>
    <path fill="none" stroke="#fff" stroke-miterlimit="10" d="m369.5 187.8-60.9 14.3-34.7-37.8-48.4 13.1-47.7-52.3-17.9 6.7"/>
    <circle cx="177.8" cy="125.1" r="6.7" fill="#33199c"/>
    <circle cx="225.5" cy="177.4" r="6.7" fill="#3949bb"/>
    <circle cx="210.8" cy="100.6" r="6.7" fill="#3eedce"/>
    <circle cx="314.8" cy="152.1" r="6.7" fill="#3a9aba"/>
    <circle cx="263.3" cy="188.8" r="6.7" fill="#61aec8"/>
    <circle cx="361.7" cy="244" r="6.7" fill="#33199c"/>
    <circle cx="273.9" cy="164.3" r="6.7" fill="#4d5bc2"/>
    <circle cx="308.6" cy="200.8" r="6.7" fill="#3e6adb"/>
    <circle cx="369.5" cy="187.8" r="6.7" fill="#4696ec"/>
  </g>
</svg>
